<svg width="24" height="24" viewBox="0 0 24 24" fill="none" xmlns="http://www.w3.org/2000/svg">
<g clip-path="url(#clip0_1377_6241)">
<path d="M11.9998 2.61086L10.5226 4.08801L10.5227 4.08815L4.36523 10.2457L5.84239 11.7228L11.9742 5.591L11.9735 5.59029L13.4952 4.0686L13.4959 4.06931L14.1435 3.42167C14.9968 2.56838 16.1541 2.08901 17.3609 2.08901C18.5676 2.08901 19.7249 2.56839 20.5782 3.42168C22.3522 5.19573 22.3522 8.08232 20.5782 9.85637L20.1886 10.246L21.6658 11.7231L22.0554 11.3335C24.6481 8.74082 24.6481 4.53723 22.0554 1.94453C20.8103 0.699473 19.1216 0 17.3609 0C15.6001 0 13.9114 0.699465 12.6664 1.94452L11.9999 2.611L11.9998 2.61086Z" fill="#D51B23"/>
<path d="M2.59986 11.9889L2.60091 11.9878L4.1226 13.5095L4.12155 13.5106L10.2451 19.6341L11.7223 18.1569L5.5653 12L5.56579 11.9995L4.08863 10.5224L4.08815 10.5228L3.42167 9.85637C1.64763 8.08232 1.64763 5.19573 3.42168 3.42168C4.27497 2.56839 5.43229 2.08902 6.63902 2.08901C7.84576 2.08901 9.00308 2.56838 9.85637 3.42167L10.246 3.8113L11.7232 2.33415L11.3335 1.94452C10.0885 0.699465 8.39981 0 6.63903 0C4.87825 0 3.18959 0.699465 1.94453 1.94452C-0.648168 4.53723 -0.648183 8.74083 1.94452 11.3335L2.59986 11.9889Z" fill="#D51B23"/>
<path d="M21.3888 12.0001L22.0553 12.6666C24.648 15.2593 24.648 19.4629 22.0553 22.0556C20.8102 23.3006 19.1216 24.0001 17.3608 24.0001C15.6 24.0001 13.9113 23.3006 12.6663 22.0556L12.2749 21.6642L13.7521 20.1871L14.1434 20.5784C14.9967 21.4317 16.154 21.9111 17.3608 21.9111C18.5675 21.9111 19.7248 21.4317 20.5781 20.5784C22.3522 18.8044 22.3522 15.9178 20.5781 14.1437L19.9585 13.5241L19.9592 13.5234L18.4345 12.0001L12.2758 5.8414L13.753 4.36426L19.9116 10.5229L19.9118 10.5228L21.389 11.9999L21.3888 12.0001Z" fill="#D51B23"/>
<path d="M10.5218 19.9105L11.999 18.4334L18.1589 12.2755L19.6359 13.7529L13.4904 19.8984L13.4888 19.8968L11.9671 21.4184L11.9687 21.42L11.3335 22.0552C10.0885 23.3003 8.3998 23.9997 6.63903 23.9997C4.87825 23.9997 3.18958 23.3003 1.94452 22.0552C-0.648174 19.4625 -0.648174 15.2589 1.94452 12.6662L2.33534 12.2754L3.8125 13.7525L3.42168 14.1434C1.64764 15.9174 1.64764 18.804 3.42168 20.578C4.27498 21.4313 5.43229 21.9107 6.63903 21.9107C7.84576 21.9107 9.00308 21.4313 9.85637 20.5781L10.5228 19.9116L10.5218 19.9105Z" fill="#D51B23"/>
</g>
<defs>
<clipPath id="clip0_1377_6241">
<rect width="24" height="24" fill="white"/>
</clipPath>
</defs>
</svg>
